<svg width="29" height="37" viewBox="0 0 29 37" fill="none" xmlns="http://www.w3.org/2000/svg">
<path d="M4.32063 1.28587C2.28753 7.10586 3.67121 13.0261 7.97064 16.1443C11.3511 18.6124 15.5288 18.6346 19.2785 17.7455C22.2288 17.046 25.0285 15.7587 27.1979 14.488V34.0556C26.0679 34.3246 24.9243 34.5334 23.7718 34.6809L23.7432 34.6845L23.7148 34.6898C21.5245 35.0936 19.2755 35.0539 17.1009 34.5728C14.9391 34.0947 12.8946 33.1901 11.087 31.9123C9.27347 30.3993 7.69084 28.6293 6.38932 26.6584C4.20949 23.1606 2.63581 19.3199 1.73468 15.2982C0.712304 10.6056 0.833898 5.74016 2.08362 1.11142L4.32063 1.28587Z" stroke="white" stroke-width="2.09596"/>
</svg>
