<svg width="33" height="43" viewBox="0 0 33 43" fill="none" xmlns="http://www.w3.org/2000/svg">
<path d="M11.8243 10.7893L11.8417 11.7124L12.7609 11.7989C19.0332 12.3888 25.2714 13.1666 31.4414 14.0434V36.3241C26.0076 35.2793 20.5193 34.5404 15.0024 34.1109C14.9878 34.0096 14.972 33.8996 14.955 33.7814C14.8499 33.048 14.7001 31.9979 14.522 30.7315C14.1657 28.1985 13.6959 24.8014 13.2416 21.3431L11.1921 21.3431C10.8565 23.8976 10.2442 26.4081 9.3661 28.8303C6.70835 35.9043 3.11697 39.2293 1.03358 40.6528V24.9838C3.09228 24.2044 5.40375 23.2816 7.91986 22.1551L8.82305 21.7651L9.34019 21.5418L9.4328 20.9861C9.43608 20.9665 9.4428 20.9341 9.45171 20.8911C9.49289 20.6926 9.58078 20.2689 9.59067 19.8398C9.83714 18.0517 9.97546 16.2504 10.0049 14.4456L10.0049 14.4402C10.0529 10.14 9.61763 5.84913 8.70809 1.64823L11.0785 1.2113C11.5148 4.38627 11.7639 7.58448 11.8243 10.7893Z" stroke="white" stroke-width="2.06715"/>
</svg>
