<svg width="21" height="40" viewBox="0 0 21 40" fill="none" xmlns="http://www.w3.org/2000/svg">
<path d="M18.5364 38.2072H8.86657L3.30467 22.3726C3.30456 22.3723 3.30445 22.372 3.30434 22.3717C3.10529 21.8014 2.90506 21.2206 2.70364 20.6364C2.16494 19.0739 1.61776 17.4867 1.06202 16.0107C1.40114 11.3668 1.77094 6.73759 2.17142 2.09671C6.9259 6.09168 11.1098 9.67425 14.1936 12.3358C15.9 13.8086 17.2694 14.9992 18.212 15.8215C18.561 16.1259 18.8514 16.3799 19.0788 16.5789C18.9155 16.9695 18.7393 17.4343 18.561 17.9234C18.2207 18.8566 17.836 19.9843 17.4606 21.1065C17.2112 21.8524 16.9678 22.5894 16.744 23.2672C16.2837 24.6614 15.9059 25.8057 15.7267 26.2637L15.7266 26.2637L15.7245 26.2694C15.6638 26.4271 15.6098 26.5686 15.5611 26.6964C15.4362 27.024 15.3457 27.2616 15.2639 27.4524L15.1111 27.8089L15.2272 28.1789L16.2194 31.3416L16.2299 31.3751L16.2426 31.4078C16.3718 31.74 16.4652 32.037 16.5682 32.3669C17.1581 34.3546 17.8422 36.2868 18.5364 38.2072Z" stroke="white" stroke-width="2.09596"/>
</svg>
